<svg width="50" height="51" viewBox="0 0 50 51" fill="none" xmlns="http://www.w3.org/2000/svg">
<path fill-rule="evenodd" clip-rule="evenodd" d="M13.75 0C15.1307 0 16.25 1.08731 16.25 2.42857V4.85714H33.75V2.42857C33.75 1.08731 34.8693 0 36.25 0C37.6307 0 38.75 1.08731 38.75 2.42857V4.9171C45.0667 5.52634 50 10.7035 50 17V38.8571C50 45.5635 44.4036 51 37.5 51H12.5C5.59644 51 0 45.5635 0 38.8571V17C0 10.7035 4.93335 5.52634 11.25 4.9171V2.42857C11.25 1.08731 12.3693 0 13.75 0ZM5.42676 14.5714H44.5732C43.5436 11.7417 40.7655 9.71429 37.5 9.71429H12.5C9.23445 9.71429 6.45636 11.7417 5.42676 14.5714ZM45 19.4286H5V38.8571C5 42.8809 8.35786 46.1429 12.5 46.1429H37.5C41.6421 46.1429 45 42.8809 45 38.8571V19.4286ZM10 26.7143C10 25.373 11.1193 24.2857 12.5 24.2857H22.5C23.8807 24.2857 25 25.373 25 26.7143V36.4286C25 37.7698 23.8807 38.8571 22.5 38.8571H12.5C11.1193 38.8571 10 37.7698 10 36.4286V26.7143ZM20 29.1429H15V34H20V29.1429Z" fill="#F9F9F9"/>
</svg>
