<svg width="45" height="50" viewBox="0 0 45 50" fill="none" xmlns="http://www.w3.org/2000/svg">
<path d="M41.3212 0.776367H21.1521C21.0663 0.776367 20.9863 0.814668 20.9211 0.869379L20.1989 1.53412L20.1783 1.51497L6.99164 13.6991L7.01534 13.7183L1.42108 18.8912C1.35892 18.9459 1.32642 19.0253 1.32642 19.1073V46.5996C1.32642 48.4708 2.96916 49.9999 5.00264 49.9999H41.3212C43.3458 49.9999 45.0003 48.4708 45.0003 46.5996V4.17393C45.0003 2.30281 43.3458 0.776367 41.3212 0.776367ZM34.7797 40.9097C35.2977 41.3994 35.2977 42.179 34.7797 42.6577C34.5163 42.8984 34.167 43.0243 33.8296 43.0243C33.4862 43.0243 33.1458 42.8984 32.8853 42.6577L28.8479 38.9264H18.2572L14.2228 42.6577C13.9594 42.8984 13.6101 43.0243 13.2727 43.0243C12.9293 43.0243 12.589 42.8984 12.3285 42.6577C11.8075 42.179 11.8075 41.3994 12.3285 40.9097L16.3659 37.1839V27.3933L12.3285 23.6593C11.8075 23.1778 11.8075 22.4009 12.3285 21.9113C12.8494 21.4325 13.6989 21.4325 14.2228 21.9113L18.2572 25.6426H28.8479L32.8853 21.9113C33.4063 21.4325 34.2558 21.4325 34.7797 21.9113C35.2977 22.4009 35.2977 23.1778 34.7797 23.6593L30.7394 27.3933V37.1839L34.7797 40.9097ZM36.9759 18.4891C36.9759 18.6642 36.8279 18.7982 36.6444 18.7982H13.101L23.8012 8.91191H36.6444C36.8279 8.91191 36.9759 9.04869 36.9759 9.22103V18.4891Z" fill="#1A1A1A"/>
<path d="M19.0383 36.4559H28.0661V28.1152H19.0383V36.4559Z" fill="#1A1A1A"/>
<path d="M5.12698 11.6937L12.6511 4.73722C12.882 4.52384 12.882 4.17916 12.6511 3.96305L8.99557 0.581905C8.76174 0.368532 8.38883 0.368532 8.15499 0.581905L6.46791 2.14391C6.45015 2.10561 6.42344 2.07278 6.39088 2.03996L4.29522 0.100444C4.15906 -0.0226556 3.95785 -0.0335954 3.84241 0.0730913L0.080332 3.54998C-0.0380658 3.65667 -0.0233817 3.84542 0.109816 3.96579L2.2114 5.9053C2.241 5.93539 2.27959 5.96001 2.31807 5.97916L0.633732 7.53842C0.399896 7.7518 0.399896 8.09921 0.633732 8.31259L4.28929 11.6937C4.52313 11.9098 4.89314 11.9098 5.12698 11.6937Z" fill="#1A1A1A"/>
</svg>
