<svg width="57" height="38" viewBox="0 0 57 38" fill="none" xmlns="http://www.w3.org/2000/svg">
<path d="M55.1759 12.3059C55.1759 12.3059 54.6082 11.0722 53.9063 11.0722H47.366C46.6662 11.0722 46.0986 11.6259 46.0986 12.3059V13.4997H44.3157C44.3157 12.3207 44.3157 11.5796 44.3157 11.508C44.3157 11.0722 43.8499 11.1122 43.8499 11.1122H39.8768C39.8768 5.06344 36.7333 5.08449 36.7333 5.08449H29.7034V3.02964H36.7333V0H13.4251V3.02964H21.0898V5.08449C21.0898 5.08449 17.1838 5.08449 14.0339 5.08449L9.79204 8.23625H6.50352C5.80161 8.23625 5.23394 8.78786 5.23394 9.46789V17.3778H3.1217V8.92892H0V30.1427H3.1217V21.4096H5.23394V29.6016C5.23394 30.2817 5.80161 30.8333 6.50352 30.8333H9.79204L20.1106 38C20.1106 38 38.7654 38 41.7009 38C44.632 38 44.3157 35.5725 44.3157 35.5725C44.3157 35.5725 44.3157 34.1029 44.3157 31.886H46.0986V34.6082C46.0986 35.2904 46.6662 35.842 47.366 35.842H53.9063C54.6082 35.842 55.1759 34.6082 55.1759 34.6082L57 29.4479V17.4683L55.1759 12.3059Z" fill="#F9F9F9"/>
</svg>
