<svg width="52" height="50" viewBox="0 0 52 50" fill="none" xmlns="http://www.w3.org/2000/svg">
<path d="M25.9987 0C11.662 0 0 11.2154 0 25C0 38.7846 11.662 50 25.9987 50C40.3355 50 52 38.7846 52 25C52 11.2154 40.3355 0 25.9987 0ZM25.9987 46.2193C13.8307 46.2193 3.92955 36.7019 3.92955 25C3.92955 13.3006 13.8307 3.78067 25.9987 3.78067C38.1667 3.78067 48.0679 13.3006 48.0679 25C48.0679 36.7019 38.1667 46.2193 25.9987 46.2193Z" fill="#F9F9F9"/>
<path d="M22.5157 25.0001C22.5157 26.852 24.0752 28.3513 25.9986 28.3513C27.9246 28.3513 29.4814 26.852 29.4814 25.0001C29.4814 23.1508 27.9246 21.6489 25.9986 21.6489C25.9754 21.6489 25.9496 21.6539 25.9237 21.6539L13.0793 12.4468L22.5339 24.6402C22.5236 24.7618 22.5157 24.8785 22.5157 25.0001Z" fill="#F9F9F9"/>
<path d="M30.7335 32.7275H15.7256V40.6687H36.274V32.7275H30.7335ZM19.4769 38.9484H17.5122V34.4429H19.4769V38.9484ZM23.2283 38.9484H21.2634V34.4429H23.2283V38.9484ZM26.9822 38.9484H25.0174V34.4429H26.9822V38.9484ZM30.7335 38.9484H28.7688V34.4429H30.7335V38.9484ZM34.4849 34.4429V38.9484H32.52V34.4429H34.4849Z" fill="#F9F9F9"/>
</svg>
