<svg width="51" height="50" viewBox="0 0 51 50" fill="none" xmlns="http://www.w3.org/2000/svg">
<path fill-rule="evenodd" clip-rule="evenodd" d="M51 25C51 38.8071 39.5833 50 25.5 50C11.4167 50 0 38.8071 0 25C0 11.1929 11.4167 0 25.5 0C39.5833 0 51 11.1929 51 25ZM22.3448 44.7622C20.6649 40.7198 15.863 29.7673 12.75 28.75C10.5727 28.0385 7.56924 28.137 5.38559 28.3539C6.84 36.799 13.6935 43.4454 22.3448 44.7622ZM5.94009 19.3012C8.44291 11.0319 16.253 5 25.5 5C34.747 5 42.5571 11.0319 45.0599 19.3012C41.0339 18.5616 33.8084 17.5 25.5 17.5C17.1916 17.5 9.96605 18.5616 5.94009 19.3012ZM45.6144 28.3539C43.4308 28.137 40.4273 28.0385 38.25 28.75C35.137 29.7673 30.3351 40.7198 28.6552 44.7622C37.3065 43.4454 44.16 36.799 45.6144 28.3539Z" fill="#1A1A1A"/>
</svg>
