<svg width="39" height="32" viewBox="0 0 39 32" fill="none" xmlns="http://www.w3.org/2000/svg">
<path d="M37.527 9.48369H34.836L34.8576 9.42954L34.5683 8.85477C33.6763 7.08465 30.5727 1.22242 28.1107 0.131198L27.8192 0H11.1829L10.8913 0.131198C8.42495 1.22242 5.32584 7.08465 4.43172 8.85477L4.14225 9.42954L4.16608 9.48369H1.4751C0.663047 9.48369 0 10.0355 0 10.7186V12.0285C0 12.7095 0.663047 13.2634 1.4751 13.2634H2.33033C2.24178 13.6799 2.18343 14.1089 2.18343 14.5587V20.4397C2.18343 22.2056 2.91342 23.7592 4.02351 24.7192V29.5798C4.02351 30.3669 4.68434 31 5.49639 31H8.81588C9.62793 31 10.2889 30.3669 10.2889 29.5798V25.7292H28.7111V29.5798C28.7111 30.3669 29.372 31 30.1862 31H33.5014C34.3199 31 34.9764 30.3669 34.9764 29.5798V24.7192C36.0908 23.7592 36.8187 22.2056 36.8187 20.4397V14.5587C36.8187 14.1089 36.7604 13.6799 36.6697 13.2634H37.527C38.3412 13.2634 39 12.7095 39 12.0306V10.7186C39 10.0355 38.3412 9.48369 37.527 9.48369ZM11.9 2.84261H27.0978C28.1064 3.57565 30.0113 6.4953 31.4864 9.2671H7.52006C8.99082 6.4953 10.8957 3.57565 11.9 2.84261Z" fill="#FF3600"/>
<path d="M16.6079 12.5659C16.6466 12.6766 16.666 12.7568 16.666 12.8066C16.666 12.8675 16.6494 12.9118 16.6162 12.9395C16.5885 12.9671 16.5581 13.0169 16.5249 13.0889C16.4972 13.1497 16.4613 13.194 16.417 13.2217C16.3783 13.2438 16.3368 13.266 16.2925 13.2881C16.2537 13.3102 16.215 13.3351 16.1763 13.3628C16.1375 13.3849 16.1071 13.4237 16.085 13.479C16.0462 13.5731 15.9881 13.6423 15.9106 13.6865C15.8387 13.7308 15.7585 13.7529 15.6699 13.7529C15.5814 13.7529 15.4928 13.7308 15.4043 13.6865C15.3213 13.6367 15.2272 13.5758 15.1221 13.5039C15.0225 13.432 14.9062 13.3545 14.7734 13.2715C14.6462 13.1829 14.4884 13.1027 14.3003 13.0308C14.1121 12.9588 13.8908 12.9007 13.6362 12.8564C13.3817 12.8066 13.0828 12.7817 12.7397 12.7817C12.2417 12.7817 11.7935 12.8537 11.395 12.9976C11.0021 13.1359 10.6396 13.3822 10.3076 13.7363C10.0863 13.9743 9.92301 14.2205 9.81787 14.4751C9.71273 14.7241 9.66016 14.9648 9.66016 15.1973C9.66016 15.4076 9.70719 15.5957 9.80127 15.7617C9.90088 15.9277 10.0337 16.0799 10.1997 16.2183C10.3657 16.3511 10.5594 16.4756 10.7808 16.5918C11.0076 16.7025 11.2484 16.8132 11.5029 16.9238C11.763 17.029 12.0314 17.1341 12.3081 17.2393C12.5903 17.3444 12.8698 17.4578 13.1465 17.5796C13.556 17.7622 13.924 17.9642 14.2505 18.1855C14.577 18.4014 14.8537 18.6421 15.0806 18.9077C15.3075 19.1733 15.4818 19.4611 15.6035 19.771C15.7253 20.0809 15.7861 20.4157 15.7861 20.7754C15.7861 21.2347 15.7059 21.6691 15.5454 22.0786C15.3849 22.4826 15.1387 22.8368 14.8066 23.1411C14.4746 23.4455 14.0568 23.6862 13.5532 23.8633C13.0552 24.0459 12.4658 24.1372 11.7852 24.1372C11.3092 24.1372 10.8914 24.0791 10.5317 23.9629C10.172 23.8467 9.86768 23.7083 9.61865 23.5479C9.37516 23.3929 9.18148 23.2352 9.0376 23.0747C8.89925 22.9198 8.81071 22.798 8.77197 22.7095C8.7443 22.6486 8.72493 22.5988 8.71387 22.5601C8.70833 22.5158 8.70557 22.4798 8.70557 22.4521C8.70557 22.3913 8.71663 22.347 8.73877 22.3193C8.76644 22.2917 8.81071 22.2308 8.87158 22.1367C8.89372 22.098 8.92415 22.0703 8.96289 22.0537C9.00163 22.0316 9.04036 22.0122 9.0791 21.9956C9.12337 21.9735 9.16488 21.9486 9.20361 21.9209C9.24235 21.8932 9.27555 21.8517 9.30322 21.7964C9.39176 21.6138 9.52181 21.5225 9.69336 21.5225C9.78743 21.5225 9.87874 21.5557 9.96729 21.6221C10.0614 21.6829 10.1637 21.7604 10.2744 21.8545C10.3851 21.9486 10.5096 22.0537 10.6479 22.1699C10.7918 22.2806 10.9606 22.383 11.1543 22.4771C11.348 22.5711 11.5693 22.6514 11.8184 22.7178C12.0729 22.7786 12.369 22.8091 12.7065 22.8091C13.1271 22.8091 13.4813 22.7676 13.769 22.6846C14.0568 22.6016 14.2865 22.4881 14.458 22.3442C14.6351 22.1948 14.7624 22.0205 14.8398 21.8213C14.9173 21.6221 14.9561 21.4062 14.9561 21.1738C14.9561 20.8861 14.9007 20.637 14.79 20.4268C14.6849 20.2165 14.5355 20.0311 14.3418 19.8706C14.1536 19.7101 13.9268 19.569 13.6611 19.4473C13.3955 19.32 13.1022 19.1955 12.7812 19.0737C12.4658 18.952 12.1283 18.8275 11.7686 18.7002C11.4144 18.5674 11.0519 18.4152 10.6812 18.2437C10.3879 18.1108 10.1195 17.9642 9.87598 17.8037C9.63249 17.6377 9.4222 17.4523 9.24512 17.2476C9.07357 17.0428 8.94076 16.8132 8.84668 16.5586C8.7526 16.2985 8.70557 16.0052 8.70557 15.6787C8.70557 15.2858 8.76367 14.9012 8.87988 14.5249C9.00163 14.1431 9.17041 13.7861 9.38623 13.4541C9.60205 13.1165 9.85938 12.8066 10.1582 12.5244C10.4626 12.2422 10.7946 11.9987 11.1543 11.7939C11.514 11.5837 11.8986 11.4232 12.3081 11.3125C12.7176 11.1963 13.141 11.1382 13.5781 11.1382C14.0596 11.1382 14.4829 11.1991 14.8481 11.3208C15.2134 11.437 15.5205 11.5754 15.7695 11.7358C16.0186 11.8908 16.2122 12.0485 16.3506 12.209C16.4889 12.3639 16.5747 12.4829 16.6079 12.5659ZM21.4702 19.854C21.5588 19.854 21.603 19.901 21.603 19.9951C21.603 20.0339 21.5947 20.0726 21.5781 20.1113C21.401 20.6038 21.2406 21.0382 21.0967 21.4146C20.9528 21.7853 20.8117 22.098 20.6733 22.3525C20.535 22.6016 20.3883 22.7897 20.2334 22.917C20.084 23.0443 19.9152 23.1079 19.7271 23.1079C19.4836 23.1079 19.2926 23.047 19.1543 22.9253C19.016 22.798 18.9136 22.6431 18.8472 22.4604C18.7808 22.2778 18.7393 22.0841 18.7227 21.8794C18.7061 21.6691 18.6978 21.481 18.6978 21.3149C18.6978 21.0161 18.7061 20.7339 18.7227 20.4683C18.7448 20.1971 18.7559 19.9924 18.7559 19.854C18.7559 19.6437 18.6978 19.5386 18.5815 19.5386C18.493 19.5386 18.4266 19.5994 18.3823 19.7212C18.3547 19.7876 18.3132 19.9093 18.2578 20.0864C18.2025 20.2635 18.1361 20.4655 18.0586 20.6924C17.9867 20.9137 17.9119 21.1462 17.8345 21.3896C17.757 21.6276 17.6851 21.8407 17.6187 22.0288C17.5301 22.2723 17.4471 22.4715 17.3696 22.6265C17.2977 22.7759 17.2285 22.8921 17.1621 22.9751C17.0957 23.0581 17.0293 23.1134 16.9629 23.1411C16.8965 23.1688 16.8273 23.1826 16.7554 23.1826C16.6945 23.1826 16.6309 23.1715 16.5645 23.1494C16.5036 23.1273 16.4482 23.0885 16.3984 23.0332C16.3486 22.9779 16.3071 22.9059 16.2739 22.8174C16.2407 22.7233 16.2241 22.6043 16.2241 22.4604C16.2241 22.311 16.2352 22.0841 16.2573 21.7798C16.2739 21.4699 16.2988 21.113 16.332 20.709C16.3597 20.305 16.3929 19.8706 16.4316 19.4058C16.4759 18.9409 16.5202 18.4733 16.5645 18.0029C16.6087 17.5326 16.6502 17.0788 16.689 16.6416C16.7332 16.1989 16.772 15.8032 16.8052 15.4546C16.866 14.8459 16.9269 14.3063 16.9878 13.8359C17.0542 13.3656 17.14 12.9976 17.2451 12.7319C17.2783 12.6489 17.3143 12.5825 17.353 12.5327C17.3918 12.4829 17.4333 12.4359 17.4775 12.3916C17.5273 12.3473 17.5799 12.3031 17.6353 12.2588C17.6961 12.209 17.7653 12.1453 17.8428 12.0679C17.9867 11.9295 18.0946 11.8327 18.1665 11.7773C18.244 11.722 18.3104 11.6943 18.3657 11.6943C18.4155 11.6943 18.4681 11.7137 18.5234 11.7524C18.5843 11.7856 18.6147 11.8521 18.6147 11.9517C18.6147 11.9738 18.6064 12.0181 18.5898 12.0845C18.5732 12.1509 18.5428 12.2865 18.4985 12.4912C18.4543 12.696 18.4045 12.945 18.3491 13.2383C18.2938 13.5316 18.2357 13.8608 18.1748 14.2261C18.1195 14.5858 18.0697 14.9593 18.0254 15.3467C17.9701 15.7783 17.9175 16.2127 17.8677 16.6499C17.8234 17.0871 17.7819 17.5104 17.7432 17.9199C17.7044 18.3239 17.6685 18.7057 17.6353 19.0654C17.6021 19.4196 17.5744 19.735 17.5522 20.0117C17.5301 20.2829 17.5135 20.507 17.5024 20.6841C17.4914 20.8556 17.4858 20.958 17.4858 20.9912C17.4858 21.0798 17.4914 21.124 17.5024 21.124C17.508 21.124 17.5301 21.0715 17.5688 20.9663C17.6131 20.8556 17.6657 20.7145 17.7266 20.543C17.7874 20.3714 17.8566 20.1805 17.9341 19.9702C18.0116 19.7544 18.0946 19.5386 18.1831 19.3228C18.2716 19.1069 18.363 18.9049 18.457 18.7168C18.5511 18.5286 18.6452 18.3709 18.7393 18.2437C18.8499 18.0942 18.9661 17.9836 19.0879 17.9116C19.2096 17.8397 19.3286 17.8037 19.4448 17.8037C19.6606 17.8037 19.8184 17.9006 19.918 18.0942C20.0231 18.2824 20.0757 18.5231 20.0757 18.8164C20.0757 18.9437 20.0646 19.1069 20.0425 19.3062C20.0259 19.5054 20.0065 19.7157 19.9844 19.937C19.9678 20.1528 19.9484 20.3659 19.9263 20.5762C19.9097 20.7809 19.9014 20.9552 19.9014 21.0991C19.9014 21.2541 19.9097 21.3813 19.9263 21.481C19.9429 21.5806 19.965 21.6608 19.9927 21.7217C20.0259 21.7826 20.0591 21.8268 20.0923 21.8545C20.131 21.8766 20.1725 21.8877 20.2168 21.8877C20.3053 21.8877 20.3883 21.8407 20.4658 21.7466C20.5488 21.647 20.6318 21.5142 20.7148 21.3481C20.7979 21.1821 20.8836 20.9884 20.9722 20.7671C21.0607 20.5402 21.1576 20.2995 21.2627 20.0449C21.2904 19.973 21.3208 19.9232 21.354 19.8955C21.3927 19.8678 21.4315 19.854 21.4702 19.854ZM22.564 22.4106C22.6968 22.4106 22.813 22.3664 22.9126 22.2778C23.0122 22.1893 23.0952 22.0731 23.1616 21.9292C23.2336 21.7853 23.2917 21.6193 23.3359 21.4312C23.3802 21.2375 23.4134 21.0382 23.4355 20.8335C23.2751 20.7228 23.1174 20.5789 22.9624 20.4019C22.813 20.2248 22.6774 20.009 22.5557 19.7544C22.4837 19.605 22.4312 19.4528 22.3979 19.2979C22.3647 19.1374 22.3481 18.9852 22.3481 18.8413C22.3481 18.6587 22.373 18.4871 22.4229 18.3267C22.4727 18.1662 22.5446 18.0278 22.6387 17.9116C22.7383 17.7954 22.86 17.7041 23.0039 17.6377C23.1478 17.5658 23.3138 17.5298 23.502 17.5298C23.7399 17.5298 23.9336 17.5879 24.083 17.7041C24.238 17.8148 24.3597 17.9587 24.4482 18.1357C24.5368 18.3073 24.5977 18.4954 24.6309 18.7002C24.6696 18.9049 24.689 19.0959 24.689 19.2729C24.689 19.5054 24.6724 19.7433 24.6392 19.9868C24.6115 20.2303 24.5645 20.4766 24.498 20.7256C24.7028 20.709 24.8854 20.6536 25.0459 20.5596C25.2064 20.46 25.342 20.2939 25.4526 20.0615C25.519 19.9232 25.5882 19.854 25.6602 19.854C25.6989 19.854 25.7321 19.8651 25.7598 19.8872C25.793 19.9093 25.8096 19.9453 25.8096 19.9951C25.8096 20.0339 25.8013 20.0726 25.7847 20.1113C25.674 20.4268 25.4886 20.6758 25.2285 20.8584C24.974 21.041 24.689 21.1323 24.3735 21.1323C24.2795 21.4035 24.1632 21.6608 24.0249 21.9043C23.8921 22.1423 23.7344 22.3525 23.5518 22.5352C23.3691 22.7178 23.1616 22.8617 22.9292 22.9668C22.6968 23.0719 22.4395 23.1245 22.1572 23.1245C22.0078 23.1245 21.839 23.1024 21.6509 23.0581C21.4627 23.0138 21.2856 22.9225 21.1196 22.7842C20.9536 22.6403 20.8153 22.4411 20.7046 22.1865C20.5884 21.9264 20.5303 21.5833 20.5303 21.1572C20.5303 20.8086 20.5967 20.4406 20.7295 20.0532C20.8568 19.6659 21.0726 19.2812 21.377 18.8994C21.4932 18.7555 21.5983 18.6532 21.6924 18.5923C21.792 18.5314 21.8722 18.501 21.9331 18.501C22.0549 18.501 22.1157 18.5757 22.1157 18.7251C22.1157 18.7915 22.0936 18.8745 22.0493 18.9741C22.005 19.0737 21.958 19.201 21.9082 19.356C21.8584 19.5109 21.8114 19.6963 21.7671 19.9121C21.7228 20.1224 21.7007 20.3714 21.7007 20.6592C21.7007 21.2126 21.7782 21.6442 21.9331 21.9541C22.0936 22.2585 22.3039 22.4106 22.564 22.4106ZM23.4854 19.9702C23.4854 19.4058 23.4328 19.0018 23.3276 18.7583C23.2225 18.5093 23.1063 18.4097 22.979 18.4595C22.9237 18.4816 22.8905 18.5314 22.8794 18.6089C22.8739 18.6864 22.8711 18.7611 22.8711 18.833C22.8711 18.9548 22.8877 19.082 22.9209 19.2148C22.9541 19.3477 22.9956 19.4805 23.0454 19.6133C23.1007 19.7461 23.1644 19.8734 23.2363 19.9951C23.3138 20.1113 23.394 20.2192 23.4771 20.3188C23.4826 20.258 23.4854 20.1999 23.4854 20.1445C23.4854 20.0892 23.4854 20.0311 23.4854 19.9702ZM26.4053 16.9321C26.4495 16.9321 26.5021 16.9487 26.563 16.9819C26.6073 17.0096 26.6294 17.0649 26.6294 17.1479C26.6294 17.231 26.6128 17.3278 26.5796 17.4385C26.5464 17.5436 26.5243 17.6349 26.5132 17.7124C26.4744 17.8895 26.4385 18.0859 26.4053 18.3018C26.3721 18.5176 26.3416 18.7445 26.314 18.9824C26.563 18.5618 26.8203 18.2686 27.0859 18.1025C27.3571 17.931 27.5978 17.8452 27.8081 17.8452C28.0239 17.8452 28.2121 17.8867 28.3726 17.9697C28.5386 18.0527 28.6742 18.1689 28.7793 18.3184C28.8844 18.4622 28.9619 18.6366 29.0117 18.8413C29.0671 19.0461 29.0947 19.2729 29.0947 19.522C29.0947 20.1196 29.0173 20.6287 28.8623 21.0493C28.7074 21.4699 28.5192 21.8185 28.2979 22.0952C28.5579 22.0122 28.8236 21.8517 29.0947 21.6138C29.2109 21.5086 29.3521 21.3343 29.5181 21.0908C29.6841 20.8473 29.8556 20.5042 30.0327 20.0615C30.0936 19.9232 30.1711 19.854 30.2651 19.854C30.3426 19.854 30.3813 19.8983 30.3813 19.9868C30.3813 20.02 30.373 20.0615 30.3564 20.1113C30.2015 20.543 30.0355 20.9027 29.8584 21.1904C29.6813 21.4782 29.5015 21.7106 29.3188 21.8877C29.1418 22.0648 28.9647 22.1948 28.7876 22.2778C28.616 22.3608 28.4583 22.4189 28.3145 22.4521L27.8911 22.5269C27.6366 22.7427 27.3931 22.8949 27.1606 22.9834C26.9282 23.0719 26.7622 23.1162 26.6626 23.1162C26.5796 23.1162 26.5076 23.1051 26.4468 23.083C26.3914 23.0609 26.3444 23.0111 26.3057 22.9336C26.278 22.8727 26.2476 22.798 26.2144 22.7095C26.1867 22.6154 26.1729 22.5352 26.1729 22.4688C26.1729 22.3249 26.2337 22.228 26.3555 22.1782C26.4827 22.1284 26.6432 22.1035 26.8369 22.1035C26.9033 22.1035 26.9697 22.1063 27.0361 22.1118C27.1081 22.1174 27.1828 22.1257 27.2603 22.1367C27.3433 22.0039 27.4207 21.8434 27.4927 21.6553C27.5701 21.4616 27.6338 21.2541 27.6836 21.0327C27.7389 20.8058 27.7804 20.5679 27.8081 20.3188C27.8413 20.0643 27.8579 19.807 27.8579 19.5469C27.8579 18.988 27.7223 18.7085 27.4512 18.7085C27.3073 18.7085 27.1745 18.7611 27.0527 18.8662C26.9365 18.9714 26.8286 19.1069 26.729 19.2729C26.6294 19.439 26.5409 19.6243 26.4634 19.8291C26.3914 20.0339 26.3278 20.2386 26.2725 20.4434C26.2171 20.6481 26.1729 20.8418 26.1396 21.0244C26.112 21.207 26.0954 21.3564 26.0898 21.4727L26.0732 21.4893C26.0677 21.5667 26.0622 21.6387 26.0566 21.7051C26.0566 21.7715 26.0566 21.8351 26.0566 21.896C26.0511 21.896 26.0428 22.1367 26.0317 22.6182C26.0207 23.0996 25.9847 23.8384 25.9238 24.8345C25.8962 25.3159 25.8685 25.7282 25.8408 26.0713C25.8187 26.4144 25.7965 26.7021 25.7744 26.9346C25.7578 27.1725 25.7384 27.3662 25.7163 27.5156C25.6942 27.665 25.672 27.7868 25.6499 27.8809C25.6278 27.9639 25.5863 28.0275 25.5254 28.0718C25.4701 28.1216 25.4064 28.1603 25.3345 28.188C25.2681 28.2157 25.2044 28.2378 25.1436 28.2544C25.0827 28.271 25.0356 28.2931 25.0024 28.3208C24.853 28.4481 24.734 28.5394 24.6455 28.5947C24.5514 28.6501 24.4795 28.6777 24.4297 28.6777C24.3854 28.6777 24.3467 28.6556 24.3135 28.6113C24.2803 28.5726 24.2637 28.5145 24.2637 28.437C24.2637 28.3927 24.272 28.3319 24.2886 28.2544C24.3052 28.1659 24.3301 27.9888 24.3633 27.7231C24.3799 27.6069 24.3993 27.4658 24.4214 27.2998C24.438 27.1393 24.4601 26.9429 24.4878 26.7104C24.5155 26.4836 24.5459 26.2179 24.5791 25.9136C24.6123 25.6147 24.651 25.2716 24.6953 24.8843C24.7008 24.8234 24.7119 24.6795 24.7285 24.4526C24.7451 24.2313 24.7673 23.9574 24.7949 23.6309C24.8171 23.3044 24.8447 22.9447 24.8779 22.5518C24.9056 22.1533 24.936 21.7493 24.9692 21.3398C25.0024 20.9303 25.0356 20.5319 25.0688 20.1445C25.1021 19.7516 25.1353 19.4002 25.1685 19.0903C25.2017 18.7749 25.2321 18.5148 25.2598 18.3101C25.293 18.1053 25.3206 17.9863 25.3428 17.9531C25.4036 17.8424 25.4756 17.7345 25.5586 17.6294C25.6471 17.5243 25.755 17.4219 25.8823 17.3223C25.9211 17.2891 25.9626 17.2503 26.0068 17.2061C26.0511 17.1618 26.0954 17.1203 26.1396 17.0815C26.1895 17.0373 26.2337 17.0013 26.2725 16.9736C26.3167 16.946 26.361 16.9321 26.4053 16.9321Z" fill="white"/>
</svg>
