<svg width="113" height="39" viewBox="0 0 113 39" fill="none" xmlns="http://www.w3.org/2000/svg">
<line x1="1" y1="37.5393" x2="111.131" y2="37.5393" stroke="#FF3600" stroke-width="2" stroke-linecap="round"/>
<path d="M14.0764 11.582C13.3342 11.6211 12.7092 11.9043 12.2014 12.4316C11.7131 12.959 11.3616 13.5645 11.1467 14.248C10.9319 14.9121 10.8245 15.5957 10.8245 16.2988C10.8245 17.002 10.9221 17.6953 11.1174 18.3789C11.3323 19.0625 11.6936 19.668 12.2014 20.1953C12.7092 20.7031 13.3342 20.9766 14.0764 21.0156H23.7444C24.9749 21.1328 25.6487 21.8066 25.7659 23.0371C25.7463 23.584 25.5413 24.043 25.1506 24.4141C24.76 24.7656 24.2913 24.9414 23.7444 24.9414H14.3987H13.051C11.6838 24.8633 10.5608 24.3457 9.68188 23.3887C8.80298 22.4121 8.16821 21.3086 7.77759 20.0781C7.40649 18.8477 7.22095 17.5879 7.22095 16.2988C7.22095 15.3418 7.32837 14.3945 7.54321 13.457C7.75806 12.5195 8.09009 11.6309 8.53931 10.791C9.00806 9.93164 9.62329 9.19922 10.385 8.59375C11.1663 7.98828 12.0549 7.67578 13.051 7.65625H13.6077H23.7444C24.9749 7.77344 25.6487 8.44727 25.7659 9.67773C25.7659 10.2246 25.5608 10.6836 25.1506 11.0547C24.76 11.4062 24.2913 11.582 23.7444 11.582H14.0764ZM34.553 20.4004C34.553 19.8535 34.7385 19.3945 35.1096 19.0234C35.5002 18.6328 35.969 18.4375 36.5159 18.4375H40.9983L40.2366 16.2695C39.9241 15.4688 39.6116 14.7168 39.2991 14.0137C39.0061 13.291 38.6643 12.6367 38.2737 12.0508C37.9221 11.4648 37.5217 11.1523 37.0725 11.1133C36.6038 11.1523 36.1838 11.4648 35.8127 12.0508C35.4417 12.6367 35.0999 13.291 34.7874 14.0137C34.4944 14.7168 34.1917 15.4688 33.8792 16.2695L31.0959 23.8867C30.9006 24.2969 30.6467 24.6387 30.3342 24.9121C30.0413 25.166 29.592 25.293 28.9866 25.293C28.4202 25.293 27.9514 25.0977 27.5803 24.707C27.2288 24.3164 27.0725 23.8477 27.1116 23.3008C27.1311 23.0469 27.1897 22.8125 27.2874 22.5977L30.51 14.2773C31.4084 12.0898 32.3069 10.3223 33.2053 8.97461C34.0842 7.64648 35.3733 6.97266 37.0725 6.95312C38.7522 6.97266 40.0315 7.64648 40.9104 8.97461C41.8088 10.2832 42.7073 12.0508 43.6057 14.2773L46.8284 22.5977C46.926 22.8125 46.9846 23.0469 47.0042 23.3008C47.0432 23.8477 46.8772 24.3164 46.5061 24.707C46.1545 25.0977 45.6956 25.293 45.1292 25.293C44.4846 25.293 44.0061 25.166 43.6936 24.9121C43.4006 24.6387 43.1565 24.2969 42.9612 23.8867L42.4045 22.3633H36.5159C35.969 22.3633 35.51 22.168 35.1389 21.7773C34.7483 21.4062 34.553 20.9473 34.553 20.4004ZM53.3889 23.4473C53.2717 24.6191 52.6272 25.2539 51.4553 25.3516C50.9084 25.3516 50.4299 25.1758 50.0198 24.8242C49.6292 24.4531 49.4338 23.9941 49.4338 23.4473V9.56055C49.4534 9.01367 49.6584 8.56445 50.0491 8.21289C50.4397 7.8418 50.9084 7.65625 51.4553 7.65625H52.8909H56.4944H63.7307C63.8479 7.65625 63.9651 7.66602 64.0823 7.68555H64.2581C65.6252 7.72461 66.7483 8.03711 67.6272 8.62305C68.5061 9.20898 69.1409 9.88281 69.5315 10.6445C69.9221 11.3867 70.1174 12.1387 70.1174 12.9004C70.1174 13.6816 69.9221 14.4531 69.5315 15.2148C69.1604 15.957 68.5256 16.6211 67.6272 17.207C66.7483 17.793 65.6252 18.1055 64.2581 18.1445H59.1018C59.2581 19.1211 59.5803 19.8438 60.0686 20.3125C60.5374 20.7812 61.1331 21.0156 61.8557 21.0156H68.1838C68.7307 21.0352 69.1799 21.2402 69.5315 21.6309C69.9026 22.0215 70.0881 22.4902 70.0881 23.0371C70.0686 23.5645 69.8733 24.0137 69.5022 24.3848C69.1506 24.7363 68.7112 24.9219 68.1838 24.9414H61.3284C59.8831 24.9609 58.5745 24.3945 57.4026 23.2422C56.2307 22.0898 55.5178 20.7227 55.2639 19.1406C54.9124 17.3828 54.7366 16.3965 54.7366 16.1816C54.7366 15.6348 54.9221 15.1758 55.2932 14.8047C55.6838 14.4141 56.1526 14.2188 56.6995 14.2188H64.4338C64.8049 14.1992 65.1077 14.1211 65.342 13.9844C65.5959 13.8281 65.7815 13.6621 65.8987 13.4863C66.0159 13.291 66.0745 13.0957 66.0745 12.9004C66.0745 12.7051 66.0159 12.5195 65.8987 12.3438C65.7815 12.1484 65.5959 11.9824 65.342 11.8457C65.1077 11.6895 64.8049 11.6016 64.4338 11.582H56.4944H54.1506C53.6428 11.6016 53.3889 11.8555 53.3889 12.3438V23.4473Z" fill="#F3F3F3"/>
<path d="M81.0627 12.7246C81.1083 12.8548 81.1311 12.9492 81.1311 13.0078C81.1311 13.0794 81.1116 13.1315 81.0725 13.1641C81.04 13.1966 81.0042 13.2552 80.9651 13.3398C80.9325 13.4115 80.8902 13.4635 80.8381 13.4961C80.7926 13.5221 80.7437 13.5482 80.6917 13.5742C80.6461 13.6003 80.6005 13.6296 80.5549 13.6621C80.5094 13.6882 80.4736 13.7337 80.4475 13.7988C80.4019 13.9095 80.3336 13.9909 80.2424 14.043C80.1578 14.0951 80.0634 14.1211 79.9592 14.1211C79.8551 14.1211 79.7509 14.0951 79.6467 14.043C79.5491 13.9844 79.4384 13.9128 79.3147 13.8281C79.1975 13.7435 79.0608 13.6523 78.9045 13.5547C78.7548 13.4505 78.5693 13.3561 78.3479 13.2715C78.1265 13.1868 77.8661 13.1185 77.5667 13.0664C77.2672 13.0078 76.9156 12.9785 76.512 12.9785C75.926 12.9785 75.3987 13.0632 74.9299 13.2324C74.4677 13.3952 74.0413 13.6849 73.6506 14.1016C73.3902 14.3815 73.1982 14.6712 73.0745 14.9707C72.9508 15.2637 72.8889 15.5469 72.8889 15.8203C72.8889 16.0677 72.9443 16.2891 73.0549 16.4844C73.1721 16.6797 73.3284 16.8587 73.5237 17.0215C73.719 17.1777 73.9469 17.3242 74.2073 17.4609C74.4742 17.5911 74.7574 17.7214 75.0569 17.8516C75.3629 17.9753 75.6786 18.099 76.0042 18.2227C76.3362 18.3464 76.665 18.4798 76.9905 18.623C77.4722 18.8379 77.9052 19.0755 78.2893 19.3359C78.6734 19.5898 78.9989 19.873 79.2659 20.1855C79.5328 20.498 79.7379 20.8366 79.8811 21.2012C80.0243 21.5658 80.0959 21.9596 80.0959 22.3828C80.0959 22.9232 80.0015 23.4342 79.8127 23.916C79.6239 24.3913 79.3342 24.8079 78.9436 25.166C78.553 25.5241 78.0614 25.8073 77.469 26.0156C76.8831 26.2305 76.1897 26.3379 75.3889 26.3379C74.829 26.3379 74.3375 26.2695 73.9143 26.1328C73.4911 25.9961 73.1331 25.8333 72.8401 25.6445C72.5536 25.4622 72.3258 25.2767 72.1565 25.0879C71.9937 24.9056 71.8896 24.7624 71.844 24.6582C71.8114 24.5866 71.7887 24.528 71.7756 24.4824C71.7691 24.4303 71.7659 24.388 71.7659 24.3555C71.7659 24.2839 71.7789 24.2318 71.8049 24.1992C71.8375 24.1667 71.8896 24.0951 71.9612 23.9844C71.9872 23.9388 72.023 23.9062 72.0686 23.8867C72.1142 23.8607 72.1597 23.8379 72.2053 23.8184C72.2574 23.7923 72.3062 23.763 72.3518 23.7305C72.3974 23.6979 72.4364 23.6491 72.469 23.584C72.5732 23.3691 72.7262 23.2617 72.928 23.2617C73.0387 23.2617 73.1461 23.3008 73.2502 23.3789C73.3609 23.4505 73.4814 23.5417 73.6116 23.6523C73.7418 23.763 73.8883 23.8867 74.051 24.0234C74.2203 24.1536 74.4189 24.2741 74.6467 24.3848C74.8746 24.4954 75.135 24.5898 75.428 24.668C75.7275 24.7396 76.0758 24.7754 76.4729 24.7754C76.9677 24.7754 77.3844 24.7266 77.7229 24.6289C78.0614 24.5312 78.3316 24.3978 78.5334 24.2285C78.7418 24.0527 78.8915 23.8477 78.9827 23.6133C79.0738 23.3789 79.1194 23.125 79.1194 22.8516C79.1194 22.513 79.0543 22.2201 78.9241 21.9727C78.8004 21.7253 78.6246 21.5072 78.3967 21.3184C78.1754 21.1296 77.9084 20.9635 77.5959 20.8203C77.2834 20.6706 76.9384 20.5241 76.5608 20.3809C76.1897 20.2376 75.7926 20.0911 75.3694 19.9414C74.9527 19.7852 74.5263 19.6061 74.0901 19.4043C73.745 19.248 73.4293 19.0755 73.1428 18.8867C72.8564 18.6914 72.609 18.4733 72.4006 18.2324C72.1988 17.9915 72.0426 17.7214 71.9319 17.4219C71.8212 17.1159 71.7659 16.7708 71.7659 16.3867C71.7659 15.9245 71.8342 15.472 71.9709 15.0293C72.1142 14.5801 72.3127 14.1602 72.5667 13.7695C72.8206 13.3724 73.1233 13.0078 73.4749 12.6758C73.8329 12.3438 74.2236 12.0573 74.6467 11.8164C75.0699 11.569 75.5224 11.3802 76.0042 11.25C76.4859 11.1133 76.984 11.0449 77.4983 11.0449C78.0647 11.0449 78.5627 11.1165 78.9924 11.2598C79.4221 11.3965 79.7834 11.5592 80.0764 11.748C80.3694 11.9303 80.5972 12.1159 80.76 12.3047C80.9228 12.487 81.0237 12.627 81.0627 12.7246ZM86.8713 21.2988C86.9755 21.2988 87.0276 21.3542 87.0276 21.4648C87.0276 21.5104 87.0178 21.556 86.9983 21.6016C86.79 22.181 86.6012 22.6921 86.4319 23.1348C86.2626 23.571 86.0966 23.9388 85.9338 24.2383C85.7711 24.5312 85.5986 24.7526 85.4163 24.9023C85.2405 25.0521 85.0419 25.127 84.8206 25.127C84.5341 25.127 84.3095 25.0553 84.1467 24.9121C83.984 24.7624 83.8635 24.5801 83.7854 24.3652C83.7073 24.1504 83.6584 23.9225 83.6389 23.6816C83.6194 23.4342 83.6096 23.2129 83.6096 23.0176C83.6096 22.666 83.6194 22.334 83.6389 22.0215C83.665 21.7025 83.678 21.4616 83.678 21.2988C83.678 21.0514 83.6096 20.9277 83.4729 20.9277C83.3687 20.9277 83.2906 20.9993 83.2385 21.1426C83.206 21.2207 83.1571 21.3639 83.092 21.5723C83.0269 21.7806 82.9488 22.0182 82.8577 22.2852C82.773 22.5456 82.6851 22.819 82.594 23.1055C82.5028 23.3854 82.4182 23.6361 82.3401 23.8574C82.2359 24.1439 82.1383 24.3783 82.0471 24.5605C81.9625 24.7363 81.8811 24.873 81.803 24.9707C81.7249 25.0684 81.6467 25.1335 81.5686 25.166C81.4905 25.1986 81.4091 25.2148 81.3245 25.2148C81.2528 25.2148 81.178 25.2018 81.0999 25.1758C81.0282 25.1497 80.9631 25.1042 80.9045 25.0391C80.8459 24.974 80.7971 24.8893 80.7581 24.7852C80.719 24.6745 80.6995 24.5345 80.6995 24.3652C80.6995 24.1895 80.7125 23.9225 80.7385 23.5645C80.7581 23.1999 80.7874 22.7799 80.8264 22.3047C80.859 21.8294 80.898 21.3184 80.9436 20.7715C80.9957 20.2246 81.0478 19.6745 81.0999 19.1211C81.1519 18.5677 81.2008 18.0339 81.2463 17.5195C81.2984 16.9987 81.344 16.5332 81.3831 16.123C81.4547 15.4069 81.5263 14.7721 81.5979 14.2188C81.676 13.6654 81.7769 13.2324 81.9006 12.9199C81.9397 12.8223 81.982 12.7441 82.0276 12.6855C82.0732 12.627 82.122 12.5716 82.1741 12.5195C82.2327 12.4674 82.2945 12.4154 82.3596 12.3633C82.4312 12.3047 82.5126 12.2298 82.6038 12.1387C82.773 11.9759 82.9 11.862 82.9846 11.7969C83.0758 11.7318 83.1539 11.6992 83.219 11.6992C83.2776 11.6992 83.3394 11.722 83.4045 11.7676C83.4762 11.8066 83.512 11.8848 83.512 12.002C83.512 12.028 83.5022 12.0801 83.4827 12.1582C83.4631 12.2363 83.4273 12.3958 83.3752 12.6367C83.3232 12.8776 83.2646 13.1706 83.1995 13.5156C83.1344 13.8607 83.066 14.248 82.9944 14.6777C82.9293 15.1009 82.8707 15.5404 82.8186 15.9961C82.7535 16.5039 82.6917 17.015 82.6331 17.5293C82.581 18.0436 82.5321 18.5417 82.4866 19.0234C82.441 19.4987 82.3987 19.9479 82.3596 20.3711C82.3206 20.7878 82.288 21.1589 82.262 21.4844C82.2359 21.8034 82.2164 22.0671 82.2034 22.2754C82.1903 22.4772 82.1838 22.5977 82.1838 22.6367C82.1838 22.7409 82.1903 22.793 82.2034 22.793C82.2099 22.793 82.2359 22.7311 82.2815 22.6074C82.3336 22.4772 82.3954 22.3112 82.467 22.1094C82.5387 21.9076 82.62 21.6829 82.7112 21.4355C82.8023 21.1816 82.9 20.9277 83.0042 20.6738C83.1083 20.4199 83.2157 20.1823 83.3264 19.9609C83.4371 19.7396 83.5478 19.554 83.6584 19.4043C83.7887 19.2285 83.9254 19.0983 84.0686 19.0137C84.2118 18.929 84.3518 18.8867 84.4885 18.8867C84.7424 18.8867 84.928 19.0007 85.0452 19.2285C85.1689 19.4499 85.2307 19.7331 85.2307 20.0781C85.2307 20.2279 85.2177 20.4199 85.1917 20.6543C85.1721 20.8887 85.1493 21.1361 85.1233 21.3965C85.1038 21.6504 85.081 21.901 85.0549 22.1484C85.0354 22.3893 85.0256 22.5944 85.0256 22.7637C85.0256 22.946 85.0354 23.0957 85.0549 23.2129C85.0745 23.3301 85.1005 23.4245 85.1331 23.4961C85.1721 23.5677 85.2112 23.6198 85.2502 23.6523C85.2958 23.6784 85.3446 23.6914 85.3967 23.6914C85.5009 23.6914 85.5986 23.6361 85.6897 23.5254C85.7874 23.4082 85.885 23.252 85.9827 23.0566C86.0803 22.8613 86.1812 22.6335 86.2854 22.373C86.3896 22.1061 86.5035 21.8229 86.6272 21.5234C86.6597 21.4388 86.6956 21.3802 86.7346 21.3477C86.7802 21.3151 86.8258 21.2988 86.8713 21.2988ZM88.2463 24.3066C88.4026 24.3066 88.5393 24.2546 88.6565 24.1504C88.7737 24.0462 88.8713 23.9095 88.9495 23.7402C89.0341 23.571 89.1025 23.3757 89.1545 23.1543C89.2066 22.9264 89.2457 22.6921 89.2717 22.4512C89.0829 22.321 88.8974 22.1517 88.7151 21.9434C88.5393 21.735 88.3798 21.4811 88.2366 21.1816C88.1519 21.0059 88.0901 20.8268 88.051 20.6445C88.012 20.4557 87.9924 20.2767 87.9924 20.1074C87.9924 19.8926 88.0217 19.6908 88.0803 19.502C88.1389 19.3132 88.2236 19.1504 88.3342 19.0137C88.4514 18.877 88.5946 18.7695 88.7639 18.6914C88.9332 18.6068 89.1285 18.5645 89.3499 18.5645C89.6298 18.5645 89.8577 18.6328 90.0334 18.7695C90.2157 18.8997 90.359 19.069 90.4631 19.2773C90.5673 19.4792 90.6389 19.7005 90.678 19.9414C90.7236 20.1823 90.7463 20.4069 90.7463 20.6152C90.7463 20.8887 90.7268 21.1686 90.6877 21.4551C90.6552 21.7415 90.5999 22.0312 90.5217 22.3242C90.7626 22.3047 90.9775 22.2396 91.1663 22.1289C91.3551 22.0117 91.5146 21.8164 91.6448 21.543C91.7229 21.3802 91.8043 21.2988 91.8889 21.2988C91.9345 21.2988 91.9736 21.3118 92.0061 21.3379C92.0452 21.3639 92.0647 21.4062 92.0647 21.4648C92.0647 21.5104 92.0549 21.556 92.0354 21.6016C91.9052 21.9727 91.6871 22.2656 91.3811 22.4805C91.0816 22.6953 90.7463 22.8027 90.3752 22.8027C90.2646 23.1217 90.1278 23.4245 89.9651 23.7109C89.8088 23.9909 89.6233 24.2383 89.4084 24.4531C89.1936 24.668 88.9495 24.8372 88.676 24.9609C88.4026 25.0846 88.0999 25.1465 87.7678 25.1465C87.592 25.1465 87.3935 25.1204 87.1721 25.0684C86.9508 25.0163 86.7424 24.9089 86.5471 24.7461C86.3518 24.5768 86.189 24.3424 86.0588 24.043C85.9221 23.737 85.8538 23.3333 85.8538 22.832C85.8538 22.4219 85.9319 21.9889 86.0881 21.5332C86.2379 21.0775 86.4918 20.625 86.8499 20.1758C86.9866 20.0065 87.1103 19.8861 87.2209 19.8145C87.3381 19.7428 87.4325 19.707 87.5042 19.707C87.6474 19.707 87.719 19.7949 87.719 19.9707C87.719 20.0488 87.693 20.1465 87.6409 20.2637C87.5888 20.3809 87.5334 20.5306 87.4749 20.7129C87.4163 20.8952 87.3609 21.1133 87.3088 21.3672C87.2568 21.6146 87.2307 21.9076 87.2307 22.2461C87.2307 22.8971 87.3219 23.4049 87.5042 23.7695C87.693 24.1276 87.9403 24.3066 88.2463 24.3066ZM89.3303 21.4355C89.3303 20.7715 89.2685 20.2962 89.1448 20.0098C89.0211 19.7168 88.8844 19.5996 88.7346 19.6582C88.6695 19.6842 88.6305 19.7428 88.6174 19.834C88.6109 19.9251 88.6077 20.013 88.6077 20.0977C88.6077 20.2409 88.6272 20.3906 88.6663 20.5469C88.7053 20.7031 88.7542 20.8594 88.8127 21.0156C88.8778 21.1719 88.9527 21.3216 89.0374 21.4648C89.1285 21.6016 89.2229 21.7285 89.3206 21.8457C89.3271 21.7741 89.3303 21.7057 89.3303 21.6406C89.3303 21.5755 89.3303 21.5072 89.3303 21.4355ZM92.8538 17.8613C92.9058 17.8613 92.9677 17.8809 93.0393 17.9199C93.0914 17.9525 93.1174 18.0176 93.1174 18.1152C93.1174 18.2129 93.0979 18.3268 93.0588 18.457C93.0198 18.5807 92.9937 18.6882 92.9807 18.7793C92.9351 18.9876 92.8928 19.2188 92.8538 19.4727C92.8147 19.7266 92.7789 19.9935 92.7463 20.2734C93.0393 19.7786 93.342 19.4336 93.6545 19.2383C93.9736 19.0365 94.2568 18.9355 94.5042 18.9355C94.7581 18.9355 94.9794 18.9844 95.1682 19.082C95.3635 19.1797 95.523 19.3164 95.6467 19.4922C95.7704 19.6615 95.8616 19.8665 95.9202 20.1074C95.9853 20.3483 96.0178 20.6152 96.0178 20.9082C96.0178 21.6113 95.9267 22.2103 95.7444 22.7051C95.5621 23.1999 95.3407 23.61 95.0803 23.9355C95.3863 23.8379 95.6988 23.6491 96.0178 23.3691C96.1545 23.2454 96.3206 23.0404 96.5159 22.7539C96.7112 22.4674 96.913 22.0638 97.1213 21.543C97.193 21.3802 97.2841 21.2988 97.3948 21.2988C97.4859 21.2988 97.5315 21.3509 97.5315 21.4551C97.5315 21.4941 97.5217 21.543 97.5022 21.6016C97.3199 22.1094 97.1246 22.5326 96.9163 22.8711C96.7079 23.2096 96.4963 23.4831 96.2815 23.6914C96.0732 23.8997 95.8648 24.0527 95.6565 24.1504C95.4547 24.248 95.2691 24.3164 95.0999 24.3555L94.6018 24.4434C94.3023 24.6973 94.0159 24.8763 93.7424 24.9805C93.469 25.0846 93.2737 25.1367 93.1565 25.1367C93.0588 25.1367 92.9742 25.1237 92.9026 25.0977C92.8375 25.0716 92.7821 25.013 92.7366 24.9219C92.704 24.8503 92.6682 24.7624 92.6292 24.6582C92.5966 24.5475 92.5803 24.4531 92.5803 24.375C92.5803 24.2057 92.6519 24.0918 92.7952 24.0332C92.9449 23.9746 93.1337 23.9453 93.3616 23.9453C93.4397 23.9453 93.5178 23.9486 93.5959 23.9551C93.6806 23.9616 93.7685 23.9714 93.8596 23.9844C93.9573 23.8281 94.0484 23.6393 94.1331 23.418C94.2242 23.1901 94.2991 22.946 94.3577 22.6855C94.4228 22.4186 94.4716 22.1387 94.5042 21.8457C94.5432 21.5462 94.5627 21.2435 94.5627 20.9375C94.5627 20.2799 94.4032 19.9512 94.0842 19.9512C93.915 19.9512 93.7587 20.013 93.6155 20.1367C93.4788 20.2604 93.3518 20.4199 93.2346 20.6152C93.1174 20.8105 93.0133 21.0286 92.9221 21.2695C92.8375 21.5104 92.7626 21.7513 92.6975 21.9922C92.6324 22.2331 92.5803 22.4609 92.5413 22.6758C92.5087 22.8906 92.4892 23.0664 92.4827 23.2031L92.4631 23.2227C92.4566 23.3138 92.4501 23.3984 92.4436 23.4766C92.4436 23.5547 92.4436 23.6296 92.4436 23.7012C92.4371 23.7012 92.4273 23.9844 92.4143 24.5508C92.4013 25.1172 92.359 25.9863 92.2874 27.1582C92.2548 27.7246 92.2222 28.2096 92.1897 28.6133C92.1637 29.0169 92.1376 29.3555 92.1116 29.6289C92.092 29.9089 92.0693 30.1367 92.0432 30.3125C92.0172 30.4883 91.9911 30.6315 91.9651 30.7422C91.939 30.8398 91.8902 30.9147 91.8186 30.9668C91.7535 31.0254 91.6786 31.071 91.594 31.1035C91.5159 31.1361 91.441 31.1621 91.3694 31.1816C91.2978 31.2012 91.2424 31.2272 91.2034 31.2598C91.0276 31.4095 90.8876 31.5169 90.7834 31.582C90.6728 31.6471 90.5881 31.6797 90.5295 31.6797C90.4775 31.6797 90.4319 31.6536 90.3928 31.6016C90.3538 31.556 90.3342 31.4876 90.3342 31.3965C90.3342 31.3444 90.344 31.2728 90.3635 31.1816C90.3831 31.0775 90.4124 30.8691 90.4514 30.5566C90.4709 30.4199 90.4937 30.2539 90.5198 30.0586C90.5393 29.8698 90.5653 29.6387 90.5979 29.3652C90.6305 29.0983 90.6663 28.7858 90.7053 28.4277C90.7444 28.0762 90.79 27.6725 90.842 27.2168C90.8486 27.1452 90.8616 26.9759 90.8811 26.709C90.9006 26.4486 90.9267 26.1263 90.9592 25.7422C90.9853 25.3581 91.0178 24.9349 91.0569 24.4727C91.0894 24.0039 91.1252 23.5286 91.1643 23.0469C91.2034 22.5651 91.2424 22.0964 91.2815 21.6406C91.3206 21.1784 91.3596 20.765 91.3987 20.4004C91.4377 20.0293 91.4736 19.7233 91.5061 19.4824C91.5452 19.2415 91.5777 19.1016 91.6038 19.0625C91.6754 18.9323 91.76 18.8053 91.8577 18.6816C91.9618 18.5579 92.0888 18.4375 92.2385 18.3203C92.2841 18.2812 92.3329 18.2357 92.385 18.1836C92.4371 18.1315 92.4892 18.0827 92.5413 18.0371C92.5999 17.985 92.6519 17.9427 92.6975 17.9102C92.7496 17.8776 92.8017 17.8613 92.8538 17.8613Z" fill="#FF3600"/>
</svg>
