<svg width="101" height="33" viewBox="0 0 101 33" fill="none" xmlns="http://www.w3.org/2000/svg">
<path d="M100 30.1647C100.552 30.1647 101 30.6124 101 31.1647C101 31.717 100.552 32.1647 100 32.1647H1C0.447715 32.1647 0 31.717 0 31.1647C0 30.6124 0.447715 30.1647 1 30.1647H100Z" fill="#FF3600"/>
<path d="M92.3027 9.26472C92.3548 9.26472 92.4167 9.28426 92.4883 9.32332C92.5404 9.35587 92.5664 9.42097 92.5664 9.51863C92.5664 9.61629 92.5469 9.73022 92.5078 9.86043C92.4688 9.98413 92.4427 10.0915 92.4297 10.1827C92.3841 10.391 92.3418 10.6221 92.3027 10.8761C92.2637 11.13 92.2279 11.3969 92.1953 11.6768C92.4883 11.182 92.791 10.837 93.1035 10.6417C93.4225 10.4399 93.7057 10.3389 93.9531 10.3389C94.207 10.3389 94.4284 10.3878 94.6172 10.4854C94.8125 10.5831 94.972 10.7198 95.0957 10.8956C95.2194 11.0649 95.3105 11.2699 95.3691 11.5108C95.4342 11.7517 95.4668 12.0186 95.4668 12.3116C95.4668 13.0147 95.3757 13.6137 95.1934 14.1085C95.0111 14.6033 94.7897 15.0134 94.5293 15.3389C94.8353 15.2413 95.1478 15.0525 95.4668 14.7725C95.6035 14.6488 95.7695 14.4438 95.9648 14.1573C96.1602 13.8708 96.362 13.4672 96.5703 12.9464C96.6419 12.7836 96.7331 12.7022 96.8438 12.7022C96.9349 12.7022 96.9805 12.7543 96.9805 12.8585C96.9805 12.8975 96.9707 12.9464 96.9512 13.005C96.7689 13.5128 96.5736 13.9359 96.3652 14.2745C96.1569 14.613 95.9453 14.8865 95.7305 15.0948C95.5221 15.3031 95.3138 15.4561 95.1055 15.5538C94.9036 15.6514 94.7181 15.7198 94.5488 15.7589L94.0508 15.8468C93.7513 16.1007 93.4648 16.2797 93.1914 16.3839C92.918 16.488 92.7227 16.5401 92.6055 16.5401C92.5078 16.5401 92.4232 16.5271 92.3516 16.5011C92.2865 16.475 92.2311 16.4164 92.1855 16.3253C92.153 16.2537 92.1172 16.1658 92.0781 16.0616C92.0456 15.9509 92.0293 15.8565 92.0293 15.7784C92.0293 15.6091 92.1009 15.4952 92.2441 15.4366C92.3939 15.378 92.5827 15.3487 92.8105 15.3487C92.8887 15.3487 92.9668 15.352 93.0449 15.3585C93.1296 15.365 93.2174 15.3748 93.3086 15.3878C93.4062 15.2315 93.4974 15.0427 93.582 14.8214C93.6732 14.5935 93.748 14.3494 93.8066 14.0889C93.8717 13.822 93.9206 13.5421 93.9531 13.2491C93.9922 12.9496 94.0117 12.6469 94.0117 12.3409C94.0117 11.6833 93.8522 11.3546 93.5332 11.3546C93.3639 11.3546 93.2077 11.4164 93.0645 11.5401C92.9277 11.6638 92.8008 11.8233 92.6836 12.0186C92.5664 12.2139 92.4622 12.432 92.3711 12.6729C92.2865 12.9138 92.2116 13.1547 92.1465 13.3956C92.0814 13.6365 92.0293 13.8643 91.9902 14.0792C91.9577 14.294 91.9382 14.4698 91.9316 14.6065L91.9121 14.6261C91.9056 14.7172 91.8991 14.8018 91.8926 14.88C91.8926 14.9581 91.8926 15.033 91.8926 15.1046C91.8861 15.1046 91.8763 15.3878 91.8633 15.9542C91.8503 16.5206 91.8079 17.3897 91.7363 18.5616C91.7038 19.128 91.6712 19.613 91.6387 20.0167C91.6126 20.4203 91.5866 20.7589 91.5605 21.0323C91.541 21.3123 91.5182 21.5401 91.4922 21.7159C91.4661 21.8917 91.4401 22.0349 91.4141 22.1456C91.388 22.2432 91.3392 22.3181 91.2676 22.3702C91.2025 22.4288 91.1276 22.4744 91.043 22.5069C90.9648 22.5395 90.89 22.5655 90.8184 22.585C90.7467 22.6046 90.6914 22.6306 90.6523 22.6632C90.4766 22.8129 90.3366 22.9203 90.2324 22.9854C90.1217 23.0505 90.0371 23.0831 89.9785 23.0831C89.9264 23.0831 89.8809 23.057 89.8418 23.005C89.8027 22.9594 89.7832 22.891 89.7832 22.7999C89.7832 22.7478 89.793 22.6762 89.8125 22.585C89.832 22.4809 89.8613 22.2725 89.9004 21.96C89.9199 21.8233 89.9427 21.6573 89.9688 21.462C89.9883 21.2732 90.0143 21.0421 90.0469 20.7686C90.0794 20.5017 90.1152 20.1892 90.1543 19.8311C90.1934 19.4796 90.2389 19.0759 90.291 18.6202C90.2975 18.5486 90.3105 18.3793 90.3301 18.1124C90.3496 17.852 90.3757 17.5297 90.4082 17.1456C90.4342 16.7615 90.4668 16.3383 90.5059 15.8761C90.5384 15.4073 90.5742 14.932 90.6133 14.4503C90.6523 13.9685 90.6914 13.4998 90.7305 13.044C90.7695 12.5818 90.8086 12.1684 90.8477 11.8038C90.8867 11.4327 90.9225 11.1267 90.9551 10.8858C90.9941 10.6449 91.0267 10.505 91.0527 10.4659C91.1243 10.3357 91.209 10.2087 91.3066 10.085C91.4108 9.96134 91.5378 9.8409 91.6875 9.72371C91.7331 9.68465 91.7819 9.63907 91.834 9.58699C91.8861 9.53491 91.9382 9.48608 91.9902 9.44051C92.0488 9.38842 92.1009 9.3461 92.1465 9.31355C92.1986 9.281 92.2507 9.26472 92.3027 9.26472Z" fill="#FF3600"/>
<path d="M87.6953 15.71C87.8516 15.71 87.9883 15.658 88.1055 15.5538C88.2227 15.4496 88.3203 15.3129 88.3984 15.1436C88.4831 14.9744 88.5514 14.779 88.6035 14.5577C88.6556 14.3298 88.6947 14.0955 88.7207 13.8546C88.5319 13.7244 88.3464 13.5551 88.1641 13.3468C87.9883 13.1384 87.8288 12.8845 87.6855 12.585C87.6009 12.4093 87.5391 12.2302 87.5 12.0479C87.4609 11.8591 87.4414 11.6801 87.4414 11.5108C87.4414 11.296 87.4707 11.0942 87.5293 10.9053C87.5879 10.7165 87.6725 10.5538 87.7832 10.4171C87.9004 10.2803 88.0436 10.1729 88.2129 10.0948C88.3822 10.0102 88.5775 9.96785 88.7988 9.96785C89.0788 9.96785 89.3066 10.0362 89.4824 10.1729C89.6647 10.3031 89.8079 10.4724 89.9121 10.6807C90.0163 10.8826 90.0879 11.1039 90.127 11.3448C90.1725 11.5857 90.1953 11.8103 90.1953 12.0186C90.1953 12.2921 90.1758 12.572 90.1367 12.8585C90.1042 13.1449 90.0488 13.4346 89.9707 13.7276C90.2116 13.7081 90.4264 13.643 90.6152 13.5323C90.804 13.4151 90.9635 13.2198 91.0938 12.9464C91.1719 12.7836 91.2533 12.7022 91.3379 12.7022C91.3835 12.7022 91.4225 12.7152 91.4551 12.7413C91.4941 12.7673 91.5137 12.8096 91.5137 12.8682C91.5137 12.9138 91.5039 12.9594 91.4844 13.005C91.3542 13.3761 91.1361 13.669 90.8301 13.8839C90.5306 14.0987 90.1953 14.2061 89.8242 14.2061C89.7135 14.5251 89.5768 14.8279 89.4141 15.1143C89.2578 15.3943 89.0723 15.6417 88.8574 15.8565C88.6426 16.0714 88.3984 16.2406 88.125 16.3643C87.8516 16.488 87.5488 16.5499 87.2168 16.5499C87.041 16.5499 86.8424 16.5238 86.6211 16.4718C86.3997 16.4197 86.1914 16.3123 85.9961 16.1495C85.8008 15.9802 85.638 15.7458 85.5078 15.4464C85.3711 15.1404 85.3027 14.7367 85.3027 14.2354C85.3027 13.8253 85.3809 13.3923 85.5371 12.9366C85.6868 12.4809 85.9408 12.0284 86.2988 11.5792C86.4355 11.4099 86.5592 11.2895 86.6699 11.2178C86.7871 11.1462 86.8815 11.1104 86.9531 11.1104C87.0964 11.1104 87.168 11.1983 87.168 11.3741C87.168 11.4522 87.1419 11.5499 87.0898 11.6671C87.0378 11.7843 86.9824 11.934 86.9238 12.1163C86.8652 12.2986 86.8099 12.5167 86.7578 12.7706C86.7057 13.018 86.6797 13.3109 86.6797 13.6495C86.6797 14.3005 86.7708 14.8083 86.9531 15.1729C87.1419 15.531 87.3893 15.71 87.6953 15.71ZM88.7793 12.8389C88.7793 12.1749 88.7174 11.6996 88.5938 11.4132C88.4701 11.1202 88.3333 11.003 88.1836 11.0616C88.1185 11.0876 88.0794 11.1462 88.0664 11.2374C88.0599 11.3285 88.0566 11.4164 88.0566 11.5011C88.0566 11.6443 88.0762 11.794 88.1152 11.9503C88.1543 12.1065 88.2031 12.2628 88.2617 12.419C88.3268 12.5753 88.4017 12.725 88.4863 12.8682C88.5775 13.005 88.6719 13.1319 88.7695 13.2491C88.776 13.1775 88.7793 13.1091 88.7793 13.044C88.7793 12.9789 88.7793 12.9106 88.7793 12.8389Z" fill="#FF3600"/>
<path d="M86.3203 12.7022C86.4245 12.7022 86.4766 12.7576 86.4766 12.8682C86.4766 12.9138 86.4668 12.9594 86.4473 13.005C86.2389 13.5844 86.0501 14.0955 85.8809 14.5382C85.7116 14.9744 85.5456 15.3422 85.3828 15.6417C85.2201 15.9346 85.0475 16.156 84.8652 16.3057C84.6895 16.4555 84.4909 16.5303 84.2695 16.5303C83.9831 16.5303 83.7585 16.4587 83.5957 16.3155C83.4329 16.1658 83.3125 15.9835 83.2344 15.7686C83.1562 15.5538 83.1074 15.3259 83.0879 15.085C83.0684 14.8376 83.0586 14.6163 83.0586 14.421C83.0586 14.0694 83.0684 13.7374 83.0879 13.4249C83.1139 13.1059 83.127 12.865 83.127 12.7022C83.127 12.4548 83.0586 12.3311 82.9219 12.3311C82.8177 12.3311 82.7396 12.4027 82.6875 12.546C82.6549 12.6241 82.6061 12.7673 82.541 12.9757C82.4759 13.184 82.3978 13.4216 82.3066 13.6886C82.222 13.949 82.1341 14.2224 82.043 14.5089C81.9518 14.7888 81.8672 15.0395 81.7891 15.2608C81.6849 15.5473 81.5872 15.7817 81.4961 15.9639C81.4115 16.1397 81.3301 16.2764 81.252 16.3741C81.1738 16.4718 81.0957 16.5369 81.0176 16.5694C80.9395 16.602 80.8581 16.6182 80.7734 16.6182C80.7018 16.6182 80.627 16.6052 80.5488 16.5792C80.4772 16.5531 80.4121 16.5076 80.3535 16.4425C80.2949 16.3774 80.2461 16.2927 80.207 16.1886C80.168 16.0779 80.1484 15.9379 80.1484 15.7686C80.1484 15.5928 80.1615 15.3259 80.1875 14.9678C80.207 14.6033 80.2363 14.1833 80.2754 13.7081C80.3079 13.2328 80.347 12.7218 80.3926 12.1749C80.4447 11.628 80.4967 11.0779 80.5488 10.5245C80.6009 9.97111 80.6497 9.43725 80.6953 8.92293C80.7474 8.40209 80.793 7.9366 80.832 7.52644C80.9036 6.8103 80.9753 6.17553 81.0469 5.62215C81.125 5.06876 81.2259 4.63582 81.3496 4.32332C81.3887 4.22566 81.431 4.14754 81.4766 4.08894C81.5221 4.03035 81.571 3.97501 81.623 3.92293C81.6816 3.87084 81.7435 3.81876 81.8086 3.76668C81.8802 3.70808 81.9616 3.63321 82.0527 3.54207C82.222 3.37931 82.349 3.26538 82.4336 3.20027C82.5247 3.13517 82.6029 3.10262 82.668 3.10262C82.7266 3.10262 82.7884 3.1254 82.8535 3.17097C82.9251 3.21004 82.9609 3.28816 82.9609 3.40535C82.9609 3.43139 82.9512 3.48347 82.9316 3.5616C82.9121 3.63972 82.8763 3.79923 82.8242 4.04012C82.7721 4.281 82.7135 4.57397 82.6484 4.91902C82.5833 5.26407 82.515 5.65144 82.4434 6.08113C82.3783 6.50431 82.3197 6.94376 82.2676 7.39949C82.2025 7.9073 82.1406 8.41837 82.082 8.93269C82.0299 9.44702 81.9811 9.94506 81.9355 10.4268C81.89 10.9021 81.8477 11.3513 81.8086 11.7745C81.7695 12.1912 81.737 12.5623 81.7109 12.8878C81.6849 13.2068 81.6654 13.4705 81.6523 13.6788C81.6393 13.8806 81.6328 14.0011 81.6328 14.0401C81.6328 14.1443 81.6393 14.1964 81.6523 14.1964C81.6589 14.1964 81.6849 14.1345 81.7305 14.0108C81.7826 13.8806 81.8444 13.7146 81.916 13.5128C81.9876 13.3109 82.069 13.0863 82.1602 12.8389C82.2513 12.585 82.349 12.3311 82.4531 12.0772C82.5573 11.8233 82.6647 11.5857 82.7754 11.3643C82.8861 11.143 82.9967 10.9574 83.1074 10.8077C83.2376 10.6319 83.3743 10.5017 83.5176 10.4171C83.6608 10.3324 83.8008 10.2901 83.9375 10.2901C84.1914 10.2901 84.377 10.404 84.4941 10.6319C84.6178 10.8533 84.6797 11.1365 84.6797 11.4815C84.6797 11.6313 84.6667 11.8233 84.6406 12.0577C84.6211 12.2921 84.5983 12.5395 84.5723 12.7999C84.5527 13.0538 84.5299 13.3044 84.5039 13.5518C84.4844 13.7927 84.4746 13.9978 84.4746 14.1671C84.4746 14.3494 84.4844 14.4991 84.5039 14.6163C84.5234 14.7335 84.5495 14.8279 84.582 14.8995C84.6211 14.9711 84.6602 15.0232 84.6992 15.0557C84.7448 15.0818 84.7936 15.0948 84.8457 15.0948C84.9499 15.0948 85.0475 15.0395 85.1387 14.9288C85.2363 14.8116 85.334 14.6553 85.4316 14.46C85.5293 14.2647 85.6302 14.0369 85.7344 13.7764C85.8385 13.5095 85.9525 13.2263 86.0762 12.9268C86.1087 12.8422 86.1445 12.7836 86.1836 12.7511C86.2292 12.7185 86.2747 12.7022 86.3203 12.7022Z" fill="#FF3600"/>
<path d="M80.5117 4.12801C80.5573 4.25821 80.5801 4.35262 80.5801 4.41121C80.5801 4.48282 80.5605 4.53491 80.5215 4.56746C80.4889 4.60001 80.4531 4.6586 80.4141 4.74324C80.3815 4.81485 80.3392 4.86694 80.2871 4.89949C80.2415 4.92553 80.1927 4.95157 80.1406 4.97762C80.0951 5.00366 80.0495 5.03295 80.0039 5.06551C79.9583 5.09155 79.9225 5.13712 79.8965 5.20222C79.8509 5.3129 79.7826 5.39428 79.6914 5.44637C79.6068 5.49845 79.5124 5.52449 79.4082 5.52449C79.304 5.52449 79.1999 5.49845 79.0957 5.44637C78.998 5.38777 78.8874 5.31616 78.7637 5.23152C78.6465 5.14689 78.5098 5.05574 78.3535 4.95808C78.2038 4.85392 78.0182 4.75952 77.7969 4.67488C77.5755 4.59025 77.3151 4.52189 77.0156 4.4698C76.7161 4.41121 76.3646 4.38191 75.9609 4.38191C75.375 4.38191 74.8477 4.46655 74.3789 4.63582C73.9167 4.79858 73.4902 5.08829 73.0996 5.50496C72.8392 5.78491 72.6471 6.07462 72.5234 6.3741C72.3997 6.66707 72.3379 6.95027 72.3379 7.22371C72.3379 7.47111 72.3932 7.69246 72.5039 7.88777C72.6211 8.08308 72.7773 8.26212 72.9727 8.42488C73.168 8.58113 73.3958 8.72762 73.6562 8.86433C73.9232 8.99454 74.2064 9.12475 74.5059 9.25496C74.8118 9.37866 75.1276 9.50236 75.4531 9.62605C75.7852 9.74975 76.1139 9.88321 76.4395 10.0264C76.9212 10.2413 77.3542 10.4789 77.7383 10.7393C78.1224 10.9932 78.4479 11.2764 78.7148 11.5889C78.9818 11.9014 79.1868 12.24 79.3301 12.6046C79.4733 12.9692 79.5449 13.363 79.5449 13.7862C79.5449 14.3266 79.4505 14.8376 79.2617 15.3194C79.0729 15.7947 78.7832 16.2113 78.3926 16.5694C78.002 16.9275 77.5104 17.2107 76.918 17.419C76.332 17.6339 75.6387 17.7413 74.8379 17.7413C74.278 17.7413 73.7865 17.6729 73.3633 17.5362C72.9401 17.3995 72.582 17.2367 72.2891 17.0479C72.0026 16.8656 71.7747 16.6801 71.6055 16.4913C71.4427 16.309 71.3385 16.1658 71.293 16.0616C71.2604 15.99 71.2376 15.9314 71.2246 15.8858C71.2181 15.8337 71.2148 15.7914 71.2148 15.7589C71.2148 15.6873 71.2279 15.6352 71.2539 15.6026C71.2865 15.5701 71.3385 15.4984 71.4102 15.3878C71.4362 15.3422 71.472 15.3096 71.5176 15.2901C71.5632 15.2641 71.6087 15.2413 71.6543 15.2218C71.7064 15.1957 71.7552 15.1664 71.8008 15.1339C71.8464 15.1013 71.8854 15.0525 71.918 14.9874C72.0221 14.7725 72.1751 14.6651 72.377 14.6651C72.4876 14.6651 72.5951 14.7042 72.6992 14.7823C72.8099 14.8539 72.9303 14.9451 73.0605 15.0557C73.1908 15.1664 73.3372 15.2901 73.5 15.4268C73.6693 15.557 73.8678 15.6775 74.0957 15.7882C74.3236 15.8988 74.584 15.9932 74.877 16.0714C75.1764 16.143 75.5247 16.1788 75.9219 16.1788C76.4167 16.1788 76.8333 16.13 77.1719 16.0323C77.5104 15.9346 77.7806 15.8012 77.9824 15.6319C78.1908 15.4561 78.3405 15.2511 78.4316 15.0167C78.5228 14.7823 78.5684 14.5284 78.5684 14.255C78.5684 13.9164 78.5033 13.6234 78.373 13.3761C78.2493 13.1287 78.0736 12.9106 77.8457 12.7218C77.6243 12.533 77.3574 12.3669 77.0449 12.2237C76.7324 12.074 76.3874 11.9275 76.0098 11.7843C75.6387 11.641 75.2415 11.4945 74.8184 11.3448C74.4017 11.1886 73.9753 11.0095 73.5391 10.8077C73.194 10.6514 72.8783 10.4789 72.5918 10.2901C72.3053 10.0948 72.0579 9.8767 71.8496 9.63582C71.6478 9.39493 71.4915 9.12475 71.3809 8.82527C71.2702 8.51928 71.2148 8.17423 71.2148 7.79012C71.2148 7.32788 71.2832 6.8754 71.4199 6.43269C71.5632 5.98347 71.7617 5.56355 72.0156 5.17293C72.2695 4.77579 72.5723 4.41121 72.9238 4.07918C73.2819 3.74715 73.6725 3.46069 74.0957 3.2198C74.5189 2.97241 74.9714 2.7836 75.4531 2.6534C75.9349 2.51668 76.4329 2.44832 76.9473 2.44832C77.5137 2.44832 78.0117 2.51993 78.4414 2.66316C78.8711 2.79988 79.2324 2.96264 79.5254 3.15144C79.8184 3.33374 80.0462 3.51928 80.209 3.70808C80.3717 3.89038 80.4727 4.03035 80.5117 4.12801Z" fill="#FF3600"/>
<path d="M52.8379 14.8507C52.7207 16.0225 52.0762 16.6573 50.9043 16.755C50.3574 16.755 49.8789 16.5792 49.4688 16.2276C49.0781 15.8565 48.8828 15.3975 48.8828 14.8507V0.963943C48.9023 0.417068 49.1074 -0.0321503 49.498 -0.383713C49.8887 -0.754807 50.3574 -0.940353 50.9043 -0.940353H52.3398H55.9434H63.1797C63.2969 -0.940353 63.4141 -0.930588 63.5312 -0.911057H63.707C65.0742 -0.871994 66.1973 -0.559494 67.0762 0.0264435C67.9551 0.612381 68.5898 1.28621 68.9805 2.04793C69.3711 2.79012 69.5664 3.54207 69.5664 4.30379C69.5664 5.08504 69.3711 5.85652 68.9805 6.61824C68.6094 7.36043 67.9746 8.02449 67.0762 8.61043C66.1973 9.19637 65.0742 9.50887 63.707 9.54793H58.5508C58.707 10.5245 59.0293 11.2471 59.5176 11.7159C59.9863 12.1846 60.582 12.419 61.3047 12.419H67.6328C68.1797 12.4386 68.6289 12.6436 68.9805 13.0343C69.3516 13.4249 69.5371 13.8936 69.5371 14.4405C69.5176 14.9678 69.3223 15.4171 68.9512 15.7882C68.5996 16.1397 68.1602 16.3253 67.6328 16.3448H60.7773C59.332 16.3643 58.0234 15.7979 56.8516 14.6456C55.6797 13.4932 54.9668 12.1261 54.7129 10.544C54.3613 8.78621 54.1855 7.79988 54.1855 7.58504C54.1855 7.03816 54.3711 6.57918 54.7422 6.20808C55.1328 5.81746 55.6016 5.62215 56.1484 5.62215H63.8828C64.2539 5.60262 64.5566 5.52449 64.791 5.38777C65.0449 5.23152 65.2305 5.06551 65.3477 4.88972C65.4648 4.69441 65.5234 4.4991 65.5234 4.30379C65.5234 4.10847 65.4648 3.92293 65.3477 3.74715C65.2305 3.55183 65.0449 3.38582 64.791 3.2491C64.5566 3.09285 64.2539 3.00496 63.8828 2.98543H55.9434H53.5996C53.0918 3.00496 52.8379 3.25887 52.8379 3.74715V14.8507Z" fill="#F3F3F3"/>
<path d="M34.002 11.8038C34.002 11.2569 34.1875 10.7979 34.5586 10.4268C34.9492 10.0362 35.418 9.8409 35.9648 9.8409H40.4473L39.6855 7.67293C39.373 6.87215 39.0605 6.12019 38.748 5.41707C38.4551 4.69441 38.1133 4.04012 37.7227 3.45418C37.3711 2.86824 36.9707 2.55574 36.5215 2.51668C36.0527 2.55574 35.6328 2.86824 35.2617 3.45418C34.8906 4.04012 34.5488 4.69441 34.2363 5.41707C33.9434 6.12019 33.6406 6.87215 33.3281 7.67293L30.5449 15.2901C30.3496 15.7003 30.0957 16.0421 29.7832 16.3155C29.4902 16.5694 29.041 16.6964 28.4355 16.6964C27.8691 16.6964 27.4004 16.5011 27.0293 16.1104C26.6777 15.7198 26.5215 15.2511 26.5605 14.7042C26.5801 14.4503 26.6387 14.2159 26.7363 14.0011L29.959 5.68074C30.8574 3.49324 31.7559 1.72566 32.6543 0.378006C33.5332 -0.950119 34.8223 -1.62395 36.5215 -1.64348C38.2012 -1.62395 39.4805 -0.950119 40.3594 0.378006C41.2578 1.6866 42.1562 3.45418 43.0547 5.68074L46.2773 14.0011C46.375 14.2159 46.4336 14.4503 46.4531 14.7042C46.4922 15.2511 46.3262 15.7198 45.9551 16.1104C45.6035 16.5011 45.1445 16.6964 44.5781 16.6964C43.9336 16.6964 43.4551 16.5694 43.1426 16.3155C42.8496 16.0421 42.6055 15.7003 42.4102 15.2901L41.8535 13.7667H35.9648C35.418 13.7667 34.959 13.5714 34.5879 13.1807C34.1973 12.8096 34.002 12.3507 34.002 11.8038Z" fill="#F3F3F3"/>
<path d="M13.5254 2.98543C12.7832 3.02449 12.1582 3.30769 11.6504 3.83504C11.1621 4.36238 10.8105 4.96785 10.5957 5.65144C10.3809 6.31551 10.2734 6.9991 10.2734 7.70222C10.2734 8.40535 10.3711 9.09871 10.5664 9.7823C10.7812 10.4659 11.1426 11.0714 11.6504 11.5987C12.1582 12.1065 12.7832 12.38 13.5254 12.419H23.1934C24.4238 12.5362 25.0977 13.21 25.2148 14.4405C25.1953 14.9874 24.9902 15.4464 24.5996 15.8175C24.209 16.169 23.7402 16.3448 23.1934 16.3448H13.8477H12.5C11.1328 16.2667 10.0098 15.7491 9.13086 14.7921C8.25195 13.8155 7.61719 12.712 7.22656 11.4815C6.85547 10.2511 6.66992 8.99129 6.66992 7.70222C6.66992 6.74519 6.77734 5.79793 6.99219 4.86043C7.20703 3.92293 7.53906 3.03426 7.98828 2.19441C8.45703 1.33504 9.07227 0.602615 9.83398 -0.00285339C10.6152 -0.608322 11.5039 -0.920822 12.5 -0.940353H13.0566H23.1934C24.4238 -0.823166 25.0977 -0.149338 25.2148 1.08113C25.2148 1.62801 25.0098 2.08699 24.5996 2.45808C24.209 2.80965 23.7402 2.98543 23.1934 2.98543H13.5254Z" fill="#F3F3F3"/>
</svg>
