<svg width="15" height="15" viewBox="0 0 15 15" fill="none" xmlns="http://www.w3.org/2000/svg">
<path fill-rule="evenodd" clip-rule="evenodd" d="M4.125 0C4.53921 0 4.875 0.319797 4.875 0.714286V1.42857H10.125V0.714286C10.125 0.319797 10.4608 0 10.875 0C11.2892 0 11.625 0.319797 11.625 0.714286V1.44621C13.52 1.62539 15 3.14809 15 5V11.4286C15 13.401 13.3211 15 11.25 15H3.75C1.67893 15 0 13.401 0 11.4286V5C0 3.14809 1.48 1.62539 3.375 1.44621V0.714286C3.375 0.319797 3.71079 0 4.125 0ZM1.62803 4.28571H13.372C13.0631 3.45343 12.2297 2.85714 11.25 2.85714H3.75C2.77034 2.85714 1.93691 3.45343 1.62803 4.28571ZM13.5 5.71429H1.5V11.4286C1.5 12.612 2.50736 13.5714 3.75 13.5714H11.25C12.4926 13.5714 13.5 12.612 13.5 11.4286V5.71429ZM3 7.85714C3 7.46265 3.33579 7.14286 3.75 7.14286H6.75C7.16421 7.14286 7.5 7.46265 7.5 7.85714V10.7143C7.5 11.1088 7.16421 11.4286 6.75 11.4286H3.75C3.33579 11.4286 3 11.1088 3 10.7143V7.85714ZM6 8.57143H4.5V10H6V8.57143Z" fill="#1A1A1A"/>
</svg>
