<svg width="11" height="14" viewBox="0 0 11 14" fill="none" xmlns="http://www.w3.org/2000/svg">
<path d="M10.1007 0.203125H5.17044C5.14945 0.203125 5.1299 0.213145 5.11398 0.227459L4.93744 0.401366L4.93239 0.396357L1.70899 3.58395L1.71478 3.58896L0.347298 4.94229C0.332104 4.9566 0.324158 4.97736 0.324158 4.99883V12.1913C0.324158 12.6808 0.725717 13.0809 1.22279 13.0809H10.1007C10.5956 13.0809 11 12.6808 11 12.1913V1.09199C11 0.602468 10.5956 0.203125 10.1007 0.203125ZM8.50162 10.7027C8.62824 10.8308 8.62824 11.0348 8.50162 11.16C8.43723 11.223 8.35185 11.2559 8.26937 11.2559C8.18544 11.2559 8.10223 11.223 8.03856 11.16L7.05164 10.1839H4.46279L3.47661 11.16C3.41222 11.223 3.32684 11.2559 3.24436 11.2559C3.16043 11.2559 3.07723 11.223 3.01356 11.16C2.88621 11.0348 2.88621 10.8308 3.01356 10.7027L4.00048 9.72797V7.16659L3.01356 6.1897C2.88621 6.06374 2.88621 5.86049 3.01356 5.73239C3.1409 5.60714 3.34855 5.60714 3.47661 5.73239L4.46279 6.70856H7.05164L8.03856 5.73239C8.16591 5.60714 8.37356 5.60714 8.50162 5.73239C8.62824 5.86049 8.62824 6.06374 8.50162 6.1897L7.514 7.16659V9.72797L8.50162 10.7027ZM9.03848 4.83709C9.03848 4.88289 9.0023 4.91796 8.95744 4.91796H3.20239L5.81798 2.33153H8.95744C9.0023 2.33153 9.03848 2.36731 9.03848 2.4124V4.83709Z" fill="#1A1A1A"/>
<path d="M4.65393 9.53767H6.86073V7.35559H4.65393V9.53767Z" fill="#1A1A1A"/>
<path d="M1.25326 3.05929L3.0925 1.23934C3.14894 1.18352 3.14894 1.09334 3.0925 1.0368L2.19892 0.152237C2.14176 0.0964144 2.0506 0.0964144 1.99344 0.152237L1.58105 0.560883C1.5767 0.550864 1.57017 0.542277 1.56221 0.533689L1.04994 0.026278C1.01666 -0.00592711 0.967474 -0.00878914 0.939255 0.019122L0.0196367 0.928738C-0.00930496 0.956649 -0.00571552 1.00603 0.0268439 1.03752L0.540566 1.54493C0.547801 1.5528 0.557232 1.55924 0.566639 1.56425L0.154912 1.97218C0.0977524 2.02801 0.0977524 2.1189 0.154912 2.17472L1.04849 3.05929C1.10565 3.11583 1.1961 3.11583 1.25326 3.05929Z" fill="#1A1A1A"/>
</svg>
