<svg width="13" height="15" viewBox="0 0 13 15" fill="none" xmlns="http://www.w3.org/2000/svg">
<path d="M13 1.74394C13 0.782322 12.1594 0 11.1271 0C10.0948 0 9.25503 0.782322 9.25503 1.74394C9.25503 2.56888 9.87301 3.25954 10.699 3.44045V7.10603H6.92812V3.44045C7.7541 3.25954 8.37208 2.56888 8.37208 1.74394C8.37208 0.782322 7.53227 0 6.49914 0C5.46687 0 4.62792 0.782322 4.62792 1.74394C4.62792 2.56888 5.24505 3.25954 6.07104 3.44045V7.10603H2.30016V3.44045C3.12614 3.25954 3.74412 2.56888 3.74412 1.74394C3.74412 0.782322 2.90433 0 1.87206 0C0.840656 0 0 0.782322 0 1.74394C0 2.56888 0.617979 3.25954 1.44397 3.44045V11.5604C0.617979 11.7405 0 12.4319 0 13.2569C0 14.2177 0.840656 15 1.87206 15C2.90433 15 3.74412 14.2177 3.74412 13.2569C3.74412 12.4319 3.12614 11.7405 2.30016 11.5604V7.90363H6.07104V11.5604C5.24505 11.7405 4.62792 12.4319 4.62792 13.2569C4.62792 14.2177 5.46687 15 6.49914 15C7.53227 15 8.37208 14.2177 8.37208 13.2569C8.37208 12.4319 7.7541 11.7405 6.92812 11.5604V7.90363H11.5681V7.10603H11.5552V3.44045C12.3812 3.25954 13 2.56888 13 1.74394ZM5.48326 1.74394C5.48326 1.22213 5.93898 0.796797 6.49914 0.796797C7.06015 0.796797 7.51585 1.22213 7.51585 1.74394C7.51585 2.26656 7.06015 2.69109 6.49914 2.69109C5.93898 2.69109 5.48326 2.26656 5.48326 1.74394ZM0.855305 1.74394C0.855305 1.22213 1.31191 0.796797 1.87206 0.796797C2.43221 0.796797 2.88878 1.22213 2.88878 1.74394C2.88878 2.26656 2.43221 2.69109 1.87206 2.69109C1.31191 2.69109 0.855305 2.26656 0.855305 1.74394ZM2.88878 13.2569C2.88878 13.7779 2.43221 14.2032 1.87206 14.2032C1.31191 14.2032 0.855305 13.7779 0.855305 13.2569C0.855305 12.7342 1.31191 12.3097 1.87206 12.3097C2.43221 12.3097 2.88878 12.7342 2.88878 13.2569ZM7.51585 13.2569C7.51585 13.7779 7.06015 14.2032 6.49914 14.2032C5.93898 14.2032 5.48326 13.7779 5.48326 13.2569C5.48326 12.7342 5.93898 12.3097 6.49914 12.3097C7.06015 12.3097 7.51585 12.7342 7.51585 13.2569ZM10.1103 1.74394C10.1103 1.22213 10.5669 0.796797 11.1271 0.796797C11.6872 0.796797 12.1438 1.22213 12.1438 1.74394C12.1438 2.26656 11.6872 2.69109 11.1271 2.69109C10.5669 2.69109 10.1103 2.26656 10.1103 1.74394Z" fill="#1A1A1A"/>
</svg>
