<svg width="15" height="15" viewBox="0 0 15 15" fill="none" xmlns="http://www.w3.org/2000/svg">
<path fill-rule="evenodd" clip-rule="evenodd" d="M15 7.5C15 11.6421 11.6421 15 7.5 15C3.35786 15 0 11.6421 0 7.5C0 3.35786 3.35786 0 7.5 0C11.6421 0 15 3.35786 15 7.5ZM6.57201 13.4287C6.07791 12.2159 4.66558 8.93019 3.75 8.625C3.10963 8.41154 2.22625 8.4411 1.584 8.50617C2.01177 11.0397 4.02751 13.0336 6.57201 13.4287ZM1.74708 5.79037C2.48321 3.30956 4.78028 1.5 7.5 1.5C10.2197 1.5 12.5168 3.30956 13.2529 5.79037C12.0688 5.56848 9.94364 5.25 7.5 5.25C5.05636 5.25 2.93119 5.56848 1.74708 5.79037ZM13.416 8.50617C12.7738 8.4411 11.8904 8.41154 11.25 8.625C10.3344 8.93019 8.92209 12.2159 8.42799 13.4287C10.9725 13.0336 12.9882 11.0397 13.416 8.50617Z" fill="#1A1A1A"/>
</svg>
